<?xml version="1.0" encoding="UTF-8"?>
<svg version="1.1" xmlns="http://www.w3.org/2000/svg" width="1024" height="1024">
<path d="M0 0 C3.59245664 0.01073978 7.18441353 0.00000746 10.77685547 -0.01269531 C32.58443371 -0.0272629 54.2948439 1.10463402 75.84326172 4.57324219 C76.52906311 4.68089905 77.2148645 4.78855591 77.92144775 4.8994751 C90.42966176 6.86388891 102.78444851 9.29103713 115.09326172 12.26074219 C116.0772998 12.48922852 117.06133789 12.71771484 118.07519531 12.953125 C147.22149511 19.75530897 176.01467563 29.50051497 203.09326172 42.26074219 C204.58889648 42.95417725 204.58889648 42.95417725 206.11474609 43.66162109 C235.45209082 57.27993285 262.95651848 73.19262644 289.09326172 92.26074219 C289.76550781 92.74752441 290.43775391 93.23430664 291.13037109 93.73583984 C300.61334941 100.62120807 309.55452519 107.95311228 318.32568359 115.71972656 C319.94900381 117.13497479 321.59566391 118.50988339 323.26513672 119.87011719 C331.66982317 126.76348562 339.35171198 134.33085919 347.03076172 142.01074219 C347.57537048 142.55444458 348.11997925 143.09814697 348.68109131 143.6583252 C354.70176854 149.68013751 360.57219207 155.7721725 366.09326172 162.26074219 C367.11440209 163.41772159 368.13781933 164.57269569 369.16357422 165.72558594 C376.70465828 174.27133306 383.76133508 183.09946409 390.57617188 192.23339844 C391.96974846 194.09568681 393.3785519 195.94514287 394.79248047 197.79199219 C420.63330662 231.87003407 440.67996029 270.48567326 456.09326172 310.26074219 C456.63394287 311.63117676 456.63394287 311.63117676 457.18554688 313.02929688 C471.86355086 350.38765995 480.79709255 390.40854139 485.09326172 430.26074219 C485.17939728 431.04033295 485.26553284 431.81992371 485.35427856 432.62313843 C487.17120658 449.48234429 487.45458336 466.25230252 487.40576172 483.19824219 C487.40353879 484.55907178 487.4013623 485.91990146 487.39923096 487.2807312 C487.3562499 507.09414379 486.98240925 526.62680064 484.09326172 546.26074219 C483.94053802 547.31666565 483.94053802 547.31666565 483.784729 548.3939209 C480.90391956 568.24597445 477.34997337 587.8863404 472.09326172 607.26074219 C471.60817139 609.05922607 471.60817139 609.05922607 471.11328125 610.89404297 C453.50947568 675.42491626 423.15898456 735.22884712 381.09326172 787.26074219 C380.52397949 787.96682617 379.95469727 788.67291016 379.36816406 789.40039062 C377.53262566 791.67137234 375.68950205 793.9359546 373.84326172 796.19824219 C373.27679932 796.8963501 372.71033691 797.59445801 372.12670898 798.3137207 C368.88089698 802.26294187 365.4910359 805.92400199 361.83740234 809.49707031 C360.0801363 811.27401458 358.45235683 813.11625068 356.82763672 815.01464844 C352.68620139 819.80823286 348.24843613 824.29163789 343.77001953 828.76928711 C342.35406225 830.18742503 340.94627883 831.61370883 339.53857422 833.04003906 C334.12369022 838.46623549 328.56434816 843.50354246 322.55566406 848.26586914 C320.0966806 850.25797244 317.77864953 852.34914923 315.46826172 854.51074219 C300.83660896 867.80385258 284.00916837 880.01464515 267.17529297 890.36230469 C264.73144975 891.86763777 262.32273792 893.40653098 259.91748047 894.97167969 C228.87763697 914.94690707 194.9874607 930.4050962 160.09326172 942.26074219 C158.61019531 942.77266113 158.61019531 942.77266113 157.09716797 943.29492188 C121.16861964 955.62913114 83.89159033 962.83342492 46.09326172 966.26074219 C44.64052856 966.40431152 44.64052856 966.40431152 43.15844727 966.55078125 C30.39978332 967.65669729 17.57702659 967.50464966 4.78076172 967.51074219 C2.87268234 967.5117543 2.87268234 967.5117543 0.92605591 967.51278687 C-18.87534389 967.49611968 -38.26695955 966.91441648 -57.90673828 964.26074219 C-59.2299699 964.08732171 -60.55321234 963.91398369 -61.87646484 963.74072266 C-107.99718847 957.60797445 -153.68296794 944.86437967 -195.90673828 925.26074219 C-196.91687988 924.79410156 -197.92702148 924.32746094 -198.96777344 923.84667969 C-218.28392903 914.87664437 -237.41894277 905.3618312 -255.11816406 893.45751953 C-257.09863448 892.1323399 -259.09361191 890.83083123 -261.09033203 889.53027344 C-276.01081824 879.7659513 -290.53702933 869.46214425 -304.00830078 857.76074219 C-306.71887653 855.42277928 -309.48370619 853.18010356 -312.28173828 850.94824219 C-323.10215252 842.10793257 -333.01512376 832.23703763 -342.90673828 822.38574219 C-343.69564453 821.60150879 -344.48455078 820.81727539 -345.29736328 820.00927734 C-349.49308919 815.8019561 -353.52492312 811.51105995 -357.40087891 807.00732422 C-359.27119344 804.8380262 -361.21346005 802.73968515 -363.15673828 800.63574219 C-368.21852359 795.01724614 -372.87224867 789.12188114 -377.47412109 783.12597656 C-378.41527389 781.90061743 -379.35983811 780.67786952 -380.30810547 779.45800781 C-393.37693521 762.63314002 -405.41156624 744.80762268 -415.90673828 726.26074219 C-416.34373047 725.49213867 -416.78072266 724.72353516 -417.23095703 723.93164062 C-455.32168284 656.54236339 -479.81433937 578.60216145 -480.10986328 500.67480469 C-480.11692291 499.42701736 -480.12398254 498.17923004 -480.1312561 496.89363098 C-480.14876388 492.89095915 -480.15594812 488.88844429 -480.15673828 484.88574219 C-480.15703285 484.20277699 -480.15732742 483.51981178 -480.15763092 482.81615067 C-480.15907033 462.15208228 -479.92483234 441.74695624 -476.90673828 421.26074219 C-476.80492249 420.55914978 -476.70310669 419.85755737 -476.59820557 419.13470459 C-469.18192007 368.23233359 -455.29042236 319.66352342 -432.90673828 273.26074219 C-432.49069336 272.3915918 -432.07464844 271.52244141 -431.64599609 270.62695312 C-417.06239205 240.2916689 -399.03316886 211.48502834 -377.90673828 185.26074219 C-377.08568604 184.22989502 -377.08568604 184.22989502 -376.24804688 183.17822266 C-369.71227906 174.9724735 -363.03214201 166.96454657 -355.90673828 159.26074219 C-355.08818359 158.35066406 -354.26962891 157.44058594 -353.42626953 156.50292969 C-346.93131806 149.31125133 -340.16895562 142.3890978 -333.34423828 135.51074219 C-332.48217773 134.63571045 -331.62011719 133.76067871 -330.73193359 132.85913086 C-325.53792704 127.65774925 -320.15912369 122.88365372 -314.42260742 118.28857422 C-311.73288932 116.12061705 -309.14960914 113.86201255 -306.57495117 111.56030273 C-241.75591487 53.78000855 -154.7181491 17.38081571 -69.25341797 4.7578125 C-67.12630933 4.44188069 -65.00149924 4.10972296 -62.88037109 3.75585938 C-42.10404535 0.44219949 -20.99793997 -0.07424812 0 0 Z " fill="#265BD7" transform="translate(507.90673828125,27.7392578125)"/>
<path d="M0 0 C0.85031243 -0.00205263 1.70062485 -0.00410527 2.57670432 -0.0062201 C5.4212427 -0.01186703 8.2657323 -0.01043571 11.11027527 -0.00901413 C13.17230217 -0.01159909 15.23432858 -0.01461262 17.29635429 -0.01801753 C22.95958066 -0.02607543 28.62279434 -0.02787643 34.28602576 -0.028615 C40.39531782 -0.03046766 46.50460334 -0.03801609 52.6138916 -0.04475021 C66.66788343 -0.05903329 80.72187107 -0.06485903 94.77586841 -0.06944216 C101.72526554 -0.07178028 108.67466185 -0.07538317 115.62405834 -0.07913754 C139.42634777 -0.09197137 163.22863675 -0.10269055 187.03092957 -0.10614014 C188.52433085 -0.10636177 190.01773214 -0.10658355 191.51113343 -0.10680549 C193.00807969 -0.10702613 194.50502594 -0.10724661 196.0019722 -0.10746694 C199.00495148 -0.10790948 202.00793076 -0.1083566 205.01091003 -0.10880661 C205.75547099 -0.108916 206.50003194 -0.10902539 207.26715535 -0.1091381 C231.40127486 -0.1127675 255.53536432 -0.12868398 279.66947232 -0.15199697 C305.20313117 -0.17661667 330.73677285 -0.19031397 356.27044392 -0.19150805 C359.07572747 -0.1916795 361.88101101 -0.19189493 364.68629456 -0.19214249 C365.37700218 -0.19219826 366.0677098 -0.19225402 366.77934795 -0.19231148 C377.87425042 -0.19346008 388.96912194 -0.20446574 400.06401398 -0.21902954 C411.22507107 -0.23342638 422.38608923 -0.23636196 433.54715663 -0.22858956 C439.58857817 -0.22468868 445.62989599 -0.22558536 451.6713047 -0.23964691 C457.20958221 -0.25241919 462.74767841 -0.25115906 468.28595579 -0.2390562 C470.28195218 -0.23710497 472.27796156 -0.24015088 474.27393973 -0.24890056 C500.00356723 -0.35448532 524.12262861 4.98407693 544.23600769 22.13142776 C544.23600769 22.79142776 544.23600769 23.45142776 544.23600769 24.13142776 C545.07132019 24.47174026 545.07132019 24.47174026 545.92350769 24.81892776 C548.89760357 26.50692813 550.95609634 28.59819293 553.23600769 31.13142776 C553.23600769 31.79142776 553.23600769 32.45142776 553.23600769 33.13142776 C554.22600769 33.46142776 555.21600769 33.79142776 556.23600769 34.13142776 C564.1373388 43.26260359 569.59082287 53.66077767 573.48600769 65.00642776 C573.73237976 65.71291458 573.97875183 66.4194014 574.23258972 67.14729691 C577.88393467 78.32969852 578.5320705 89.70819496 578.50343323 101.39194107 C578.50717946 102.78309194 578.51178481 104.17424072 578.51716387 105.56538624 C578.52928937 109.351159 578.52914589 113.13684272 578.52677512 116.92263043 C578.52636428 121.02031418 578.53743149 125.11797037 578.54689026 129.21564102 C578.56344414 137.2303678 578.56899727 145.24506514 578.57011501 153.25980759 C578.57106824 159.78106922 578.57519218 166.30232121 578.58151627 172.82357979 C578.599114 191.34955009 578.60835753 209.87549731 578.60685532 228.40147603 C578.60673545 229.89697572 578.60673545 229.89697572 578.60661316 231.42268753 C578.6065314 232.42091759 578.60644964 233.41914766 578.6063654 234.44762712 C578.6055531 250.61257863 578.6246805 266.77743683 578.65288989 282.94236136 C578.68168719 299.57665866 578.6954264 316.21091055 578.69370234 332.84523338 C578.69304076 342.16951342 578.69843069 351.49369566 578.72005844 360.81795311 C578.73836068 368.7588325 578.742544 376.69956975 578.72903959 384.64046121 C578.72255498 388.68353578 578.72222712 392.7263384 578.73974609 396.76938629 C578.87739434 430.7259564 574.25392983 458.80822995 550.04020691 484.34968948 C540.20844011 494.05905811 529.00930083 501.01896438 516.23600769 506.13142776 C515.38522644 506.48720901 514.53444519 506.84299026 513.65788269 507.20955276 C511.04160892 508.20542472 508.44394449 508.98346633 505.73600769 509.69392776 C504.81819519 509.94271683 503.90038269 510.19150589 502.95475769 510.44783401 C490.79971937 512.68221606 478.32509513 512.27363595 466.01707458 512.25841141 C463.97874224 512.25956507 461.9404101 512.26115424 459.90207839 512.26313865 C454.32784391 512.2672981 448.75362663 512.26525662 443.1793921 512.26215243 C437.15757778 512.2598848 431.13576637 512.26338469 425.11395264 512.26613235 C414.00929099 512.2703177 402.90463405 512.26996124 391.79997237 512.26722089 C381.54242128 512.26470209 371.28487219 512.26405015 361.02732086 512.26524353 C360.00541703 512.26535811 360.00541703 512.26535811 358.96286867 512.265475 C356.19719191 512.26578635 353.43151515 512.26610475 350.66583839 512.26643476 C324.7435113 512.26949103 298.82118768 512.26672439 272.89886112 512.26133787 C249.87696411 512.25659042 226.85507263 512.257019 203.83317566 512.26179886 C177.95122847 512.2671546 152.06928435 512.26927639 126.18733668 512.26618659 C123.42803494 512.26586589 120.6687332 512.26555305 117.90943146 512.26524353 C117.23004958 512.26516445 116.55066771 512.26508538 115.8506985 512.2650039 C105.59773808 512.2638671 95.34477988 512.26519541 85.09181976 512.26772308 C73.43525838 512.27058251 61.77870226 512.26977077 50.12214145 512.26444234 C44.1747498 512.26181329 38.22736937 512.26078686 32.2799778 512.26409149 C26.8360735 512.26707065 21.39219086 512.26543455 15.94828853 512.26011394 C13.97881286 512.25899672 12.00933537 512.25956556 10.03986087 512.26198973 C7.36204422 512.26503301 4.6843016 512.2619086 2.0064888 512.25726891 C1.24290564 512.25961007 0.47932248 512.26195124 -0.30739957 512.26436335 C-7.82424119 512.23835541 -15.04534265 511.4938294 -22.32649231 509.56892776 C-23.8753009 509.16480667 -23.8753009 509.16480667 -25.45539856 508.75252151 C-26.2172345 508.54756058 -26.97907043 508.34259964 -27.76399231 508.13142776 C-27.76399231 507.47142776 -27.76399231 506.81142776 -27.76399231 506.13142776 C-28.77977356 506.02959183 -29.79555481 505.92775589 -30.84211731 505.82283401 C-41.16622622 504.00274709 -52.00943994 497.0155712 -59.76399231 490.13142776 C-59.76399231 489.47142776 -59.76399231 488.81142776 -59.76399231 488.13142776 C-60.3453595 487.87361526 -60.92672668 487.61580276 -61.52571106 487.35017776 C-76.29024084 479.31085265 -85.010721 458.74564273 -90.05764043 443.5382759 C-93.09028211 433.20474641 -94.20132665 423.35408294 -94.14494324 412.61658096 C-94.14840961 411.21005337 -94.15318069 409.8035285 -94.15912497 408.39700919 C-94.17153073 404.57344817 -94.16551272 400.75011471 -94.15616632 396.92655337 C-94.14933272 392.78667973 -94.15987838 388.64684317 -94.16810608 384.50697708 C-94.181401 376.41249183 -94.17858435 368.31809034 -94.16986816 360.2236019 C-94.16307385 353.63940662 -94.16218243 347.0552347 -94.16543961 340.47103691 C-94.1658993 339.53144388 -94.166359 338.59185084 -94.16683263 337.62378529 C-94.16779188 335.71456719 -94.16876452 333.8053491 -94.16975041 331.89613102 C-94.17829225 314.01920185 -94.16848986 296.14231893 -94.15234931 278.26539735 C-94.13895381 262.95549955 -94.14127024 247.64567003 -94.15510559 232.33577347 C-94.17119411 214.52443263 -94.17746149 196.71313229 -94.1682688 178.90178519 C-94.16731324 176.99894544 -94.16637012 175.09610568 -94.16543961 173.19326591 C-94.16497678 172.25722625 -94.16451395 171.32118658 -94.1640371 170.35678208 C-94.16145652 163.78875634 -94.16579816 157.22075648 -94.17287827 150.65273476 C-94.1813302 142.63641305 -94.1789363 134.62017936 -94.16303603 126.60386761 C-94.15520167 122.5207028 -94.15197805 118.43768423 -94.16198349 114.3545208 C-94.24862289 75.74407035 -94.24862289 75.74407035 -86.76399231 58.13142776 C-86.30766418 57.03121292 -86.30766418 57.03121292 -85.84211731 55.90877151 C-85.16765361 54.30851094 -84.46928718 52.71834123 -83.76399231 51.13142776 C-83.10399231 51.13142776 -82.44399231 51.13142776 -81.76399231 51.13142776 C-81.51133606 50.2535762 -81.25867981 49.37572464 -80.99836731 48.47127151 C-78.96792016 42.97749838 -75.31834688 38.73316819 -71.76399231 34.13142776 C-71.0872345 33.20136917 -71.0872345 33.20136917 -70.39680481 32.25252151 C-67.09824822 28.00127622 -63.01996606 24.76800944 -58.82649231 21.44392776 C-58.2410968 20.97986526 -57.65570129 20.51580276 -57.05256653 20.03767776 C-53.12502037 17.00151287 -49.12378478 14.50676297 -44.76399231 12.13142776 C-43.85778137 11.62740433 -42.95157043 11.12338089 -42.01789856 10.60408401 C-36.32468511 7.62113763 -30.63027992 5.25049984 -24.51399231 3.31892776 C-23.86502991 3.1121138 -23.2160675 2.90529984 -22.54743958 2.69221878 C-15.06299608 0.43482477 -7.74805831 -0.01761782 0 0 Z " fill="#265BD7" transform="translate(269.7639923095703,216.86857223510742)"/>
<path d="M0 0 C0.85031243 -0.00205263 1.70062485 -0.00410527 2.57670432 -0.0062201 C5.4212427 -0.01186703 8.2657323 -0.01043571 11.11027527 -0.00901413 C13.17230217 -0.01159909 15.23432858 -0.01461262 17.29635429 -0.01801753 C22.95958066 -0.02607543 28.62279434 -0.02787643 34.28602576 -0.028615 C40.39531782 -0.03046766 46.50460334 -0.03801609 52.6138916 -0.04475021 C66.66788343 -0.05903329 80.72187107 -0.06485903 94.77586841 -0.06944216 C101.72526554 -0.07178028 108.67466185 -0.07538317 115.62405834 -0.07913754 C139.42634777 -0.09197137 163.22863675 -0.10269055 187.03092957 -0.10614014 C188.52433085 -0.10636177 190.01773214 -0.10658355 191.51113343 -0.10680549 C193.00807969 -0.10702613 194.50502594 -0.10724661 196.0019722 -0.10746694 C199.00495148 -0.10790948 202.00793076 -0.1083566 205.01091003 -0.10880661 C205.75547099 -0.108916 206.50003194 -0.10902539 207.26715535 -0.1091381 C231.40127486 -0.1127675 255.53536432 -0.12868398 279.66947232 -0.15199697 C305.20313117 -0.17661667 330.73677285 -0.19031397 356.27044392 -0.19150805 C359.07572747 -0.1916795 361.88101101 -0.19189493 364.68629456 -0.19214249 C365.37700218 -0.19219826 366.0677098 -0.19225402 366.77934795 -0.19231148 C377.87425042 -0.19346008 388.96912194 -0.20446574 400.06401398 -0.21902954 C411.22507107 -0.23342638 422.38608923 -0.23636196 433.54715663 -0.22858956 C439.58857817 -0.22468868 445.62989599 -0.22558536 451.6713047 -0.23964691 C457.20958221 -0.25241919 462.74767841 -0.25115906 468.28595579 -0.2390562 C470.28195218 -0.23710497 472.27796156 -0.24015088 474.27393973 -0.24890056 C500.00356723 -0.35448532 524.12262861 4.98407693 544.23600769 22.13142776 C544.23600769 22.79142776 544.23600769 23.45142776 544.23600769 24.13142776 C545.07132019 24.47174026 545.07132019 24.47174026 545.92350769 24.81892776 C548.89760357 26.50692813 550.95609634 28.59819293 553.23600769 31.13142776 C553.23600769 31.79142776 553.23600769 32.45142776 553.23600769 33.13142776 C554.22600769 33.46142776 555.21600769 33.79142776 556.23600769 34.13142776 C564.1373388 43.26260359 569.59082287 53.66077767 573.48600769 65.00642776 C573.73237976 65.71291458 573.97875183 66.4194014 574.23258972 67.14729691 C577.88393467 78.32969852 578.5320705 89.70819496 578.50343323 101.39194107 C578.50717946 102.78309194 578.51178481 104.17424072 578.51716387 105.56538624 C578.52928937 109.351159 578.52914589 113.13684272 578.52677512 116.92263043 C578.52636428 121.02031418 578.53743149 125.11797037 578.54689026 129.21564102 C578.56344414 137.2303678 578.56899727 145.24506514 578.57011501 153.25980759 C578.57106824 159.78106922 578.57519218 166.30232121 578.58151627 172.82357979 C578.599114 191.34955009 578.60835753 209.87549731 578.60685532 228.40147603 C578.60673545 229.89697572 578.60673545 229.89697572 578.60661316 231.42268753 C578.6065314 232.42091759 578.60644964 233.41914766 578.6063654 234.44762712 C578.6055531 250.61257863 578.6246805 266.77743683 578.65288989 282.94236136 C578.68168719 299.57665866 578.6954264 316.21091055 578.69370234 332.84523338 C578.69304076 342.16951342 578.69843069 351.49369566 578.72005844 360.81795311 C578.73836068 368.7588325 578.742544 376.69956975 578.72903959 384.64046121 C578.72255498 388.68353578 578.72222712 392.7263384 578.73974609 396.76938629 C578.87739434 430.7259564 574.25392983 458.80822995 550.04020691 484.34968948 C540.20844011 494.05905811 529.00930083 501.01896438 516.23600769 506.13142776 C515.38522644 506.48720901 514.53444519 506.84299026 513.65788269 507.20955276 C511.04160892 508.20542472 508.44394449 508.98346633 505.73600769 509.69392776 C504.81819519 509.94271683 503.90038269 510.19150589 502.95475769 510.44783401 C490.79971937 512.68221606 478.32509513 512.27363595 466.01707458 512.25841141 C463.97874224 512.25956507 461.9404101 512.26115424 459.90207839 512.26313865 C454.32784391 512.2672981 448.75362663 512.26525662 443.1793921 512.26215243 C437.15757778 512.2598848 431.13576637 512.26338469 425.11395264 512.26613235 C414.00929099 512.2703177 402.90463405 512.26996124 391.79997237 512.26722089 C381.54242128 512.26470209 371.28487219 512.26405015 361.02732086 512.26524353 C360.00541703 512.26535811 360.00541703 512.26535811 358.96286867 512.265475 C356.19719191 512.26578635 353.43151515 512.26610475 350.66583839 512.26643476 C324.7435113 512.26949103 298.82118768 512.26672439 272.89886112 512.26133787 C249.87696411 512.25659042 226.85507263 512.257019 203.83317566 512.26179886 C177.95122847 512.2671546 152.06928435 512.26927639 126.18733668 512.26618659 C123.42803494 512.26586589 120.6687332 512.26555305 117.90943146 512.26524353 C117.23004958 512.26516445 116.55066771 512.26508538 115.8506985 512.2650039 C105.59773808 512.2638671 95.34477988 512.26519541 85.09181976 512.26772308 C73.43525838 512.27058251 61.77870226 512.26977077 50.12214145 512.26444234 C44.1747498 512.26181329 38.22736937 512.26078686 32.2799778 512.26409149 C26.8360735 512.26707065 21.39219086 512.26543455 15.94828853 512.26011394 C13.97881286 512.25899672 12.00933537 512.25956556 10.03986087 512.26198973 C7.36204422 512.26503301 4.6843016 512.2619086 2.0064888 512.25726891 C1.24290564 512.25961007 0.47932248 512.26195124 -0.30739957 512.26436335 C-7.82424119 512.23835541 -15.04534265 511.4938294 -22.32649231 509.56892776 C-23.8753009 509.16480667 -23.8753009 509.16480667 -25.45539856 508.75252151 C-26.2172345 508.54756058 -26.97907043 508.34259964 -27.76399231 508.13142776 C-27.76399231 507.47142776 -27.76399231 506.81142776 -27.76399231 506.13142776 C-28.77977356 506.02959183 -29.79555481 505.92775589 -30.84211731 505.82283401 C-41.16622622 504.00274709 -52.00943994 497.0155712 -59.76399231 490.13142776 C-59.76399231 489.47142776 -59.76399231 488.81142776 -59.76399231 488.13142776 C-60.3453595 487.87361526 -60.92672668 487.61580276 -61.52571106 487.35017776 C-76.29024084 479.31085265 -85.010721 458.74564273 -90.05764043 443.5382759 C-93.09028211 433.20474641 -94.20132665 423.35408294 -94.14494324 412.61658096 C-94.14840961 411.21005337 -94.15318069 409.8035285 -94.15912497 408.39700919 C-94.17153073 404.57344817 -94.16551272 400.75011471 -94.15616632 396.92655337 C-94.14933272 392.78667973 -94.15987838 388.64684317 -94.16810608 384.50697708 C-94.181401 376.41249183 -94.17858435 368.31809034 -94.16986816 360.2236019 C-94.16307385 353.63940662 -94.16218243 347.0552347 -94.16543961 340.47103691 C-94.1658993 339.53144388 -94.166359 338.59185084 -94.16683263 337.62378529 C-94.16779188 335.71456719 -94.16876452 333.8053491 -94.16975041 331.89613102 C-94.17829225 314.01920185 -94.16848986 296.14231893 -94.15234931 278.26539735 C-94.13895381 262.95549955 -94.14127024 247.64567003 -94.15510559 232.33577347 C-94.17119411 214.52443263 -94.17746149 196.71313229 -94.1682688 178.90178519 C-94.16731324 176.99894544 -94.16637012 175.09610568 -94.16543961 173.19326591 C-94.16497678 172.25722625 -94.16451395 171.32118658 -94.1640371 170.35678208 C-94.16145652 163.78875634 -94.16579816 157.22075648 -94.17287827 150.65273476 C-94.1813302 142.63641305 -94.1789363 134.62017936 -94.16303603 126.60386761 C-94.15520167 122.5207028 -94.15197805 118.43768423 -94.16198349 114.3545208 C-94.24862289 75.74407035 -94.24862289 75.74407035 -86.76399231 58.13142776 C-86.30766418 57.03121292 -86.30766418 57.03121292 -85.84211731 55.90877151 C-85.16765361 54.30851094 -84.46928718 52.71834123 -83.76399231 51.13142776 C-83.10399231 51.13142776 -82.44399231 51.13142776 -81.76399231 51.13142776 C-81.51133606 50.2535762 -81.25867981 49.37572464 -80.99836731 48.47127151 C-78.96792016 42.97749838 -75.31834688 38.73316819 -71.76399231 34.13142776 C-71.0872345 33.20136917 -71.0872345 33.20136917 -70.39680481 32.25252151 C-67.09824822 28.00127622 -63.01996606 24.76800944 -58.82649231 21.44392776 C-58.2410968 20.97986526 -57.65570129 20.51580276 -57.05256653 20.03767776 C-53.12502037 17.00151287 -49.12378478 14.50676297 -44.76399231 12.13142776 C-43.85778137 11.62740433 -42.95157043 11.12338089 -42.01789856 10.60408401 C-36.32468511 7.62113763 -30.63027992 5.25049984 -24.51399231 3.31892776 C-23.86502991 3.1121138 -23.2160675 2.90529984 -22.54743958 2.69221878 C-15.06299608 0.43482477 -7.74805831 -0.01761782 0 0 Z M-23.31307703 75.96584135 C-29.14250263 84.6666422 -30.48965848 91.54662168 -30.3921814 101.9913063 C-30.39723459 103.37534007 -30.40446936 104.75936728 -30.41367954 106.14337963 C-30.43251925 109.92316063 -30.42041562 113.70229011 -30.4029566 117.48205411 C-30.38954111 121.56733049 -30.40503457 125.65251415 -30.41677856 129.73778152 C-30.43512794 137.73126026 -30.42666118 145.72449405 -30.40869034 153.71796507 C-30.39464806 160.21556952 -30.39077504 166.71310761 -30.39413261 173.21072578 C-30.39461006 174.13651839 -30.3950875 175.062311 -30.39557941 176.01615794 C-30.39660577 177.89704603 -30.39766113 179.77793411 -30.39874517 181.65882217 C-30.40730664 198.27889002 -30.39065468 214.89883982 -30.36091614 231.51887894 C-30.33207543 247.63741895 -30.32499812 263.75578894 -30.34040833 279.87434769 C-30.3571772 297.43802287 -30.36119804 315.00161739 -30.34369797 332.56529468 C-30.34185363 334.43884495 -30.3400189 336.31239523 -30.33819389 338.18594551 C-30.3372818 339.10770616 -30.33636971 340.02946682 -30.33542999 340.97915961 C-30.32982922 347.46774551 -30.33312744 353.95629196 -30.33973885 360.44487572 C-30.34747793 368.35395991 -30.34069861 376.26287687 -30.31556381 384.1719274 C-30.30308262 388.20550106 -30.29690541 392.23881455 -30.30810547 396.27239799 C-30.31817305 399.9679581 -30.30963532 403.66300023 -30.28652429 407.35849749 C-30.27895209 409.3217665 -30.29089328 411.28508119 -30.30362803 413.2483235 C-30.19790685 424.52783238 -26.77658531 433.05611388 -18.76399231 441.13142776 C-15.89789728 443.15195102 -12.96986579 444.72107 -9.76399231 446.13142776 C-9.06430429 446.47618263 -8.36461626 446.82093749 -7.64372557 447.17613947 C-3.90246604 448.41722019 -0.3734012 448.40936303 3.52267742 448.38869667 C4.3578189 448.39220275 5.19296039 448.39570882 6.05340919 448.39932114 C8.8643971 448.40865815 11.67517888 448.40370587 14.48617554 448.3988533 C16.51689219 448.40258841 18.5476074 448.40718937 20.57832032 448.41258395 C26.16870974 448.42484677 31.75903946 448.42454961 37.34943926 448.4221952 C43.37482991 448.42178785 49.4002012 448.43281833 55.42558289 448.44231033 C67.23472833 448.45893969 79.04385884 448.46444666 90.85301354 448.46553509 C100.45092457 448.46645393 110.04882913 448.47056933 119.64673805 448.47693634 C122.40882326 448.47873142 125.17090849 448.48051105 127.93299371 448.4822861 C128.61964825 448.48272819 129.3063028 448.48317029 130.01376506 448.48362578 C149.33124176 448.49593617 168.64871622 448.50382672 187.96619701 448.50293922 C189.05889878 448.50289249 189.05889878 448.50289249 190.17367533 448.50284481 C193.86590037 448.50267859 197.5581254 448.50248051 201.25035044 448.50227539 C201.98364602 448.5022355 202.7169416 448.50219561 203.47245826 448.50215451 C204.95536171 448.50207364 206.43826516 448.50199004 207.9211686 448.50190373 C230.98878666 448.50067843 254.05634591 448.51568672 277.12394714 448.54304886 C303.03771369 448.57377433 328.9514416 448.59098104 354.86522752 448.58912241 C357.62888451 448.58897315 360.3925415 448.58887574 363.1561985 448.58881378 C363.83668496 448.58879047 364.51717141 448.58876716 365.21827867 448.58874315 C376.1666958 448.58868162 387.11506187 448.60145073 398.06346382 448.61867831 C409.06908419 448.63563761 420.07463921 448.6372634 431.08026697 448.62445967 C437.0419675 448.61792106 443.00348306 448.61784522 448.96516609 448.63516617 C454.42373411 448.65086229 459.88196997 448.64806838 465.34052972 448.6305979 C467.31430164 448.62752039 469.28809814 448.6311886 471.26184108 448.64231806 C485.38642566 448.71668231 495.35975527 447.80891828 506.03288269 437.63924026 C512.03830326 430.80328281 514.35408379 423.37119287 514.37022877 414.39318275 C514.37468661 413.24049066 514.37914446 412.08779856 514.38373739 410.90017641 C514.38355302 409.63823099 514.38336866 408.37628558 514.38317871 407.0760994 C514.38647966 405.71843855 514.39020571 404.36077869 514.39432019 403.00312006 C514.40432195 399.2731327 514.40805404 395.54316143 514.4107095 391.81316257 C514.41461793 387.78981899 514.42419584 383.76648809 514.43292236 379.74315262 C514.45267075 370.02763884 514.46275057 360.31212405 514.47165015 350.59659523 C514.4760354 346.01949714 514.48140157 341.44240021 514.48663902 336.86530304 C514.50364909 321.64711561 514.5181431 306.42892889 514.52538776 291.21073341 C514.5272976 287.26291147 514.52921794 283.31508953 514.53117371 279.36726761 C514.53165745 278.38607766 514.53214119 277.4048877 514.53263959 276.39396472 C514.54093934 260.50048921 514.56627633 244.60708898 514.59875438 228.71364634 C514.63183839 212.39040429 514.64983771 196.06720049 514.653032 179.74392474 C514.65519577 170.5813312 514.66392502 161.41884746 514.68949318 152.25628662 C514.71121844 144.45293647 514.71924159 136.6497228 514.7095264 128.84634583 C514.70498708 124.86721803 514.70684627 120.88837173 514.72628784 116.90928268 C514.74395893 113.260946 514.74289036 109.61309535 514.72739055 105.96475323 C514.72390432 104.03152663 514.74001127 102.09829469 514.75699502 100.16513956 C514.68002771 89.6855914 512.68792671 80.77442163 505.23600769 73.13142776 C504.76163269 72.57455276 504.28725769 72.01767776 503.79850769 71.44392776 C501.50038016 69.51350064 498.94512333 68.40630571 496.23600769 67.13142776 C495.35456703 66.61344952 494.47312637 66.09547128 493.56497538 65.56179672 C489.55615522 63.83931322 486.06760472 63.71152047 481.78502464 63.74552441 C480.94426339 63.74026529 480.10350213 63.73500618 479.23726326 63.7295877 C476.41307825 63.71560463 473.58935639 63.72300451 470.76515198 63.73028946 C468.72262113 63.72468564 466.68009349 63.71778373 464.63757098 63.70969349 C459.01907702 63.69131337 453.4007168 63.69174332 447.78219962 63.69527662 C441.72473817 63.69588799 435.66731994 63.67933845 429.60987854 63.66510391 C417.73936591 63.64016741 405.86889649 63.63189974 393.99836437 63.63026678 C384.34948022 63.62888812 374.70061055 63.62271295 365.05173111 63.6131649 C362.27421242 63.61047225 359.4966937 63.60780281 356.71917498 63.60514027 C356.02866736 63.60447712 355.33815974 63.60381398 354.62672765 63.60313074 C335.20243883 63.58466674 315.77815503 63.57282916 296.35385704 63.57416058 C295.62145707 63.57420731 294.8890571 63.57425405 294.13446319 63.5743022 C290.42237525 63.57455152 286.71028732 63.57484865 282.99819939 63.57515632 C282.26096972 63.57521616 281.52374005 63.57527599 280.76417009 63.57533764 C279.27331091 63.57545896 277.78245173 63.57558435 276.29159256 63.57571382 C253.10292319 63.57755156 229.91438548 63.55504269 206.72575378 63.51399612 C180.6709526 63.46789508 154.61623792 63.44209864 128.56139338 63.44488579 C125.78198854 63.44510968 123.00258371 63.4452558 120.22317886 63.44534874 C119.5388243 63.4453837 118.85446974 63.44541867 118.14937717 63.44545469 C107.14466276 63.44554694 96.14006279 63.42640346 85.13538239 63.40055195 C74.07046064 63.37509701 63.00567253 63.37268614 51.94072859 63.39187991 C45.94831073 63.40167985 39.9563068 63.40183103 33.96392822 63.37582016 C28.47493177 63.35223956 22.9866778 63.35650301 17.49769957 63.38267256 C15.51517186 63.38728092 13.53258889 63.38181592 11.55012636 63.36509233 C-2.13948911 63.25728608 -14.27481817 64.27581394 -23.31307703 75.96584135 Z " fill="#FEFEFE" transform="translate(269.7639923095703,216.86857223510742)"/>
<path d="M0 0 C1.1129204 -0.00709439 2.2258408 -0.01418877 3.37248605 -0.02149814 C7.07969052 -0.03901706 10.7858381 -0.02100307 14.49302673 -0.00291443 C17.15969733 -0.00805554 19.82629826 -0.01515022 22.49295044 -0.02459717 C28.97045057 -0.04292581 35.447648 -0.03449392 41.92513854 -0.01650894 C47.19133957 -0.00245448 52.4574587 0.00140376 57.72367668 -0.00195122 C58.85009396 -0.00266738 58.85009396 -0.00266738 59.99926714 -0.00339801 C61.52502424 -0.00442439 63.05078132 -0.00547975 64.57653838 -0.00656378 C78.05201675 -0.01512102 91.52734944 0.001513 105.00279236 0.03126526 C118.06568011 0.06010606 131.12835806 0.06718223 144.19126892 0.05177307 C158.4324743 0.03499687 172.67358019 0.0309907 186.91478819 0.04848343 C188.43446854 0.05032773 189.9541489 0.05216246 191.47382927 0.0539875 C192.59526183 0.05535564 192.59526183 0.05535564 193.73934959 0.05675141 C198.99712891 0.06234755 204.25485952 0.0590583 209.51263618 0.05244255 C215.92305597 0.04469629 222.33326954 0.05150841 228.74364788 0.07661759 C232.01170857 0.08908233 235.27938448 0.0931358 238.54746628 0.08407593 C242.09553802 0.07537389 245.64267973 0.09135194 249.19067383 0.11352539 C250.72862558 0.10116424 250.72862558 0.10116424 252.29764706 0.08855337 C262.97112023 0.21148161 270.75902596 4.46530949 278.53184509 11.62818909 C280.90684509 14.62818909 280.90684509 14.62818909 282.53184509 17.62818909 C283.39809509 19.11318909 283.39809509 19.11318909 284.28184509 20.62818909 C287.29072053 28.06771626 286.57597715 38.1692098 283.62950134 45.54225159 C279.69988913 53.00991324 274.21006448 58.97474616 266.53184509 62.62818909 C260.08043662 64.59768429 254.20704276 64.9140271 247.48728943 64.8888855 C246.39579008 64.89271105 245.30429072 64.89653659 244.17971563 64.90047807 C240.53337083 64.9107719 236.88718455 64.90682276 233.24082947 64.90284729 C230.6221197 64.9071957 228.0034112 64.91237928 225.38470459 64.91833496 C219.01698191 64.93106165 212.64930143 64.93287826 206.28156817 64.9305347 C201.10495384 64.9287494 195.9283523 64.9305057 190.7517395 64.93475914 C190.01411175 64.93535433 189.276484 64.93594952 188.5165039 64.93656274 C187.01788302 64.93777453 185.51926214 64.93898866 184.02064127 64.94020512 C169.97824145 64.95107246 155.93586567 64.94892176 141.89346451 64.94282027 C129.05359254 64.93764965 116.21379642 64.94891183 103.37393945 64.96791849 C90.17961559 64.98729972 76.98532759 64.99555253 63.7909894 64.99179524 C56.38745915 64.98988391 48.98399347 64.9923643 41.58047485 65.00650978 C34.62011327 65.01967441 27.65990603 65.01715975 20.69954491 65.00409889 C18.14538204 65.00173009 15.59120853 65.00447863 13.03705788 65.01272202 C9.54999518 65.0231648 6.06344497 65.01510804 2.57640076 65.00241089 C1.56627725 65.00978517 0.55615375 65.01715946 -0.48457956 65.02475721 C-8.26729141 64.96515807 -14.3141794 63.27723311 -20.96815491 59.06568909 C-21.97362366 58.44500549 -21.97362366 58.44500549 -22.99940491 57.81178284 C-23.48409241 57.4211969 -23.96877991 57.03061096 -24.46815491 56.62818909 C-24.46815491 55.96818909 -24.46815491 55.30818909 -24.46815491 54.62818909 C-25.45815491 54.29818909 -26.44815491 53.96818909 -27.46815491 53.62818909 C-28.78456116 51.99147034 -28.78456116 51.99147034 -30.03065491 49.94068909 C-30.44444397 49.2768219 -30.85823303 48.61295471 -31.28456116 47.92897034 C-35.3701108 39.98709331 -36.07353007 30.4869809 -33.71034241 21.86256409 C-32.76190018 19.66695766 -31.71478767 17.66735471 -30.46815491 15.62818909 C-29.82877991 14.53506409 -29.18940491 13.44193909 -28.53065491 12.31568909 C-21.3508082 2.96013126 -11.35402379 -0.13135277 0 0 Z " fill="#FDFEFE" transform="translate(386.46815490722656,776.3718109130859)"/>
<path d="M0 0 C0.71800781 0.50789063 1.43601562 1.01578125 2.17578125 1.5390625 C2.90410156 2.04695313 3.63242187 2.55484375 4.3828125 3.078125 C10.69895404 8.02323025 14.54218475 14.68743326 16.17578125 22.5390625 C16.26904087 24.23156914 16.31056005 25.92728037 16.31622314 27.62234497 C16.32193329 28.64833298 16.32764343 29.67432098 16.33352661 30.73139954 C16.3352034 32.41147346 16.3352034 32.41147346 16.33691406 34.12548828 C16.34436142 35.90180382 16.34436142 35.90180382 16.35195923 37.71400452 C16.364057 40.96020917 16.37152374 44.20637784 16.37596989 47.45260096 C16.37890609 49.48426113 16.38301202 51.51591573 16.38747406 53.54757309 C16.40114524 59.91423233 16.41081249 66.28087875 16.41467595 72.64755166 C16.41914923 79.97757857 16.43666459 87.30741831 16.46567655 94.63738835 C16.48736131 100.31486452 16.49738392 105.99228831 16.49871707 111.66980541 C16.49976069 115.0549184 16.50557273 118.43985537 16.52353668 121.82492447 C16.5406577 125.60884878 16.53870153 129.39232183 16.53222656 133.17626953 C16.54144135 134.28417343 16.55065613 135.39207733 16.56015015 136.53355408 C16.5070175 146.48343405 14.7408852 154.7613749 8.265625 162.49609375 C1.49526994 169.11459037 -6.68025555 172.48887605 -16.07421875 172.9140625 C-25.31418741 172.68622766 -33.09188386 169.55359718 -39.67539597 163.01397705 C-46.79430203 154.81475079 -48.71387569 146.20329742 -48.60058594 135.6171875 C-48.61109985 134.38625366 -48.62161377 133.15531982 -48.63244629 131.88708496 C-48.65415519 128.54745423 -48.64931839 125.21008835 -48.63017178 121.87059021 C-48.61482999 118.3528267 -48.62911048 114.83515069 -48.63848877 111.31738281 C-48.64936137 105.41323769 -48.63513412 99.50954496 -48.60644531 93.60546875 C-48.57379908 86.80909083 -48.58437923 80.01379335 -48.61740375 73.21744156 C-48.64475652 67.35030083 -48.64841351 61.48348266 -48.63277173 55.61629868 C-48.62348534 52.12605875 -48.62197998 48.63632428 -48.64199066 45.14611816 C-48.6627706 41.25064094 -48.63385822 37.35634413 -48.60058594 33.4609375 C-48.61273132 32.32603882 -48.62487671 31.19114014 -48.63739014 30.02185059 C-48.49257484 20.81056323 -45.82153975 13.01533895 -39.61411667 6.06414795 C-29.00696779 -4.15293924 -13.21075136 -7.94865376 0 0 Z " fill="#FDFDFE" transform="translate(647.82421875,380.4609375)"/>
<path d="M0 0 C0.63292969 0.42539062 1.26585937 0.85078125 1.91796875 1.2890625 C2.90796875 1.9490625 3.89796875 2.6090625 4.91796875 3.2890625 C4.91796875 3.9490625 4.91796875 4.6090625 4.91796875 5.2890625 C5.49546875 5.4953125 6.07296875 5.7015625 6.66796875 5.9140625 C11.64908897 8.95808041 13.57572115 14.32851504 15.29237747 19.6585865 C16.45543624 24.54899703 16.33372167 29.43983105 16.30615234 34.44311523 C16.3114093 35.62805573 16.31666626 36.81299622 16.32208252 38.03384399 C16.33296506 41.25921296 16.33049684 44.48420784 16.32094526 47.70957065 C16.31329735 51.10147754 16.32040858 54.49336119 16.32510376 57.88526917 C16.33054723 63.58021464 16.32340767 69.27504304 16.30908203 74.9699707 C16.292766 81.53145314 16.29804195 88.09265571 16.31456125 94.65413135 C16.32822588 100.31049743 16.33007136 105.96677981 16.32224524 111.62315708 C16.31759491 114.99140155 16.31687017 118.359515 16.32685471 121.72775078 C16.33451019 125.48722873 16.32280637 129.24617655 16.30615234 133.00561523 C16.31222504 134.10566391 16.31829773 135.20571259 16.32455444 136.33909607 C16.23941756 146.76228354 14.19070234 154.97958606 7.37890625 163.01953125 C0.01892493 169.80706958 -9.01177366 172.68874324 -18.8203125 172.55859375 C-28.46306621 171.7617674 -35.79729951 167.52834791 -42.08203125 160.2890625 C-47.39782189 152.09900874 -48.96160667 145.01125191 -48.85839844 135.3671875 C-48.86891235 134.13625366 -48.87942627 132.90531982 -48.89025879 131.63708496 C-48.91196769 128.29745423 -48.90713089 124.96008835 -48.88798428 121.62059021 C-48.87264249 118.1028267 -48.88692298 114.58515069 -48.89630127 111.06738281 C-48.90717387 105.16323769 -48.89294662 99.25954496 -48.86425781 93.35546875 C-48.83161158 86.55909083 -48.84219173 79.76379335 -48.87521625 72.96744156 C-48.90256902 67.10030083 -48.90622601 61.23348266 -48.89058423 55.36629868 C-48.88129784 51.87605875 -48.87979248 48.38632428 -48.89980316 44.89611816 C-48.9205831 41.00064094 -48.89167072 37.10634413 -48.85839844 33.2109375 C-48.87054382 32.07603882 -48.88268921 30.94114014 -48.89520264 29.77185059 C-48.75038734 20.56056323 -46.07935225 12.76533895 -39.87192917 5.81414795 C-28.9481542 -4.7079219 -13.4900379 -7.94077962 0 0 Z " fill="#FDFDFE" transform="translate(408.08203125,380.7109375)"/>
<path d="M0 0 C0 3 0 3 -2.625 5.91796875 C-3.74249406 7.01550756 -4.86785643 8.10507895 -6 9.1875 C-6.57234375 9.74630859 -7.1446875 10.30511719 -7.734375 10.88085938 C-9.14962788 12.26073093 -10.57397155 13.63126734 -12 15 C-12.66 14.67 -13.32 14.34 -14 14 C-9.67106815 8.81580806 -5.23435005 4.27293882 0 0 Z " fill="#DCE4F8" transform="translate(211,238)"/>
</svg>
